<svg xmlns="http://www.w3.org/2000/svg" width="246" height="62" viewBox="0 0 246 62">
    <g fill="none" fill-rule="nonzero">
        <path fill="#BEA856" d="M139.038 16.975h7.366V11.32h-7.313v-7.19h-6.556v7.19h-7.673v5.656h7.673v7.14h6.503z"/>
        <path fill="#000" d="M42.392 14.336l-.484-3.07h-6.075v26.56h6.559V23.819c0-4.902 3.172-6.735 6.612-6.735 2.149 0 3.386.587 4.729 1.725l2.955-5.713c-1.448-1.454-4.084-2.518-6.825-2.518-2.686 0-5.428.473-7.471 3.758zM75.776 10.62c-2.794 0-7.148 1.507-8.708 4.254V.167h-6.559v37.659h6.128l.431-3.664c2.052 3.179 5.322 4.254 8.547 4.254 7.793 0 13.655-5.171 13.655-13.898 0-9.159-5.753-13.899-13.494-13.899zM75.19 32.33c-4.14 0-7.688-3.018-7.688-7.813 0-4.634 3.548-7.757 7.688-7.757 4.193 0 7.526 2.961 7.526 7.757-.005 4.634-3.34 7.804-7.532 7.804l.006.01zM107.926 10.728c-8.438 0-13.707 6.25-13.707 13.846 0 7.64 5.16 13.845 13.763 13.845s13.816-6.194 13.816-13.845c-.003-7.599-5.433-13.846-13.872-13.846zm.053 21.656c-4.785 0-7.204-3.77-7.204-7.813 0-3.988 2.472-7.866 7.204-7.866 4.398 0 7.204 3.878 7.204 7.866 0 4.043-2.419 7.813-7.204 7.813zM142.478 32.375c-2.053 0-3.577-1.393-3.577-3.926v-1.6h-6.372v1.6c0 6.627 3.76 9.674 9.515 9.697h5.43v-5.703l-4.996-.068zM165.541 10.458c-8.6 0-14.074 5.818-14.074 13.898 0 8.522 5.43 14.17 14.57 14.17 4.031 0 8.602-1.402 11.397-4.311l-4.193-4.15c-1.504 1.564-4.677 2.478-7.096 2.478-4.624 0-7.47-2.372-7.916-5.657h20.697c1.023-10.933-4.515-16.428-13.385-16.428zm-7.21 10.992c.968-3.446 3.87-5.171 7.418-5.171 3.762 0 6.451 1.725 6.882 5.171h-14.3zM200.163 10.834c-3.334 0-6.02 1.346-8.708 3.987l-.431-3.608h-5.864v26.613h6.506V24.25c0-4.04 2.741-7.435 6.773-7.435 4.193 0 6.398 3.071 6.398 7.111v13.899h6.565V23.87c0-8.35-5.002-13.037-11.239-13.037zM239.409 11.266l-.214 3.664c-1.504-2.645-4.891-4.31-8.439-4.31-7.74-.054-13.816 4.739-13.816 13.898 0 9.32 5.806 14.169 13.655 14.104 2.955-.053 7.096-1.563 8.6-4.687l.322 3.88h6.19v-26.55h-6.298zm-8.07 21.332c-4.353 0-7.848-3.017-7.848-8.08 0-5.063 3.495-8.028 7.849-8.028 10.326 0 10.326 16.108 0 16.108zM22.638 11.266l-.214 3.664c-1.504-2.645-4.89-4.31-8.438-4.31C6.246 10.565.17 15.358.17 24.517c0 9.32 5.806 14.169 13.655 14.104 2.955-.053 7.095-1.563 8.6-4.687l.322 3.88h6.18v-26.55h-6.289zm-8.063 21.332c-4.354 0-7.849-3.017-7.849-8.08 0-5.063 3.495-8.028 7.85-8.028 10.32 0 10.32 16.108 0 16.108zM10.71 61.615H9.404l-1.275-3.032h-5.17l-1.275 3.032H.373L4.8 51.16h1.48l4.43 10.455zm-3.04-4.114l-2.128-5.11-2.13 5.102 4.258.008zM13.06 61.615h-1.173V51.16h4.984a3.625 3.625 0 0 1 2.554.882 3.053 3.053 0 0 1 .962 2.386c0 1.306-.542 2.196-1.625 2.668-.288.13-.588.228-.897.294l2.742 4.216h-1.402l-2.522-4.014H13.06v4.023zm0-5.133h3.609c1.114 0 1.881-.348 2.301-1.043a2.204 2.204 0 0 0-.44-2.583 2.679 2.679 0 0 0-1.797-.588H13.06v4.214zM26.91 60.59a3.383 3.383 0 0 0 3.226-2.101h1.237a4.7 4.7 0 0 1-1.718 2.35c-.88.62-1.936.942-3.011.917a4.766 4.766 0 0 1-3.704-1.563 6.034 6.034 0 0 1 0-7.581 4.766 4.766 0 0 1 3.704-1.563 5.027 5.027 0 0 1 3.01.916 4.7 4.7 0 0 1 1.72 2.351h-1.247a3.383 3.383 0 0 0-3.225-2.1 4.659 4.659 0 0 0-1.86.322c-.474.2-.9.5-1.245.882a4.86 4.86 0 0 0 0 5.97c.72.8 1.759 1.2 3.113 1.2zM42.087 61.615h-1.308l-1.275-3.032h-5.17l-1.275 3.032h-1.308L36.18 51.16h1.48l4.428 10.455zm-3.04-4.114l-2.13-5.1-2.128 5.1h4.257zM52.252 51.16v10.455H50.88L44.43 52.8v8.815h-1.173V51.16h1.372l6.45 8.798V51.16zM63.394 51.16v5.953c0 1.39-.412 2.508-1.237 3.356a4.66 4.66 0 0 1-6.398 0c-.825-.848-1.237-1.967-1.237-3.356V51.16h1.173v5.986c0 1.126.336 2.008 1.008 2.644.613.55 1.415.839 2.237.805a3.221 3.221 0 0 0 2.255-.805c.672-.62 1.009-1.502 1.009-2.644V51.16h1.19zM75.811 51.16v10.455H74.64V52.96l-3.862 4.974-3.926-4.974v8.653h-1.173V51.16h1.372l3.718 4.963 3.671-4.96zM89.381 53.922c0 1.148-.467 1.932-1.402 2.351.793.226 1.44.802 1.76 1.563.12.328.18.676.173 1.026 0 1.263-.668 2.106-2.003 2.527a4.94 4.94 0 0 1-1.56.22h-4.943V51.16h4.691c1.124 0 1.98.306 2.569.917.48.49.74 1.158.715 1.845zm-6.794 1.907h3.498c.966 0 1.612-.332 1.938-.996.116-.232.175-.49.173-.749a2.102 2.102 0 0 0-.111-.711 1.47 1.47 0 0 0-.346-.544 2 2 0 0 0-1.528-.552h-3.624v3.552zm3.894 4.66a2.687 2.687 0 0 0 1.671-.449c.392-.302.61-.778.587-1.272a1.656 1.656 0 0 0-.566-1.296 2.617 2.617 0 0 0-1.812-.57h-3.774v3.585l3.894.003zM96.315 51.034a5.07 5.07 0 0 1 3.83 1.563 5.633 5.633 0 0 1 0 7.581 5.472 5.472 0 0 1-7.659 0 5.636 5.636 0 0 1 0-7.58 5.07 5.07 0 0 1 3.83-1.564zm0 9.556a3.954 3.954 0 0 0 3.012-1.217 4.588 4.588 0 0 0 0-5.97 4.333 4.333 0 0 0-6.02 0 4.588 4.588 0 0 0 0 5.97 3.951 3.951 0 0 0 3.008 1.217zM112.342 51.16v10.455h-1.372l-6.45-8.815v8.815h-1.174V51.16h1.373l6.45 8.798V51.16zM115.92 61.615h-1.174V51.16h1.173zM128.92 52.303h-3.642v9.318h-1.173v-9.318h-3.647v-1.137h8.462zM131.441 52.303v3.506h5.8v1.152h-5.8v3.526h6.492v1.137h-7.673V51.16h7.676v1.143zM148.682 51.16v10.455h-1.372l-6.45-8.815v8.815h-1.174V51.16h1.373l6.45 8.798V51.16zM155.71 51.034a5.07 5.07 0 0 1 3.83 1.563 5.633 5.633 0 0 1 0 7.581 5.472 5.472 0 0 1-7.66 0 5.636 5.636 0 0 1 0-7.58 5.07 5.07 0 0 1 3.83-1.564zm0 9.556a3.954 3.954 0 0 0 3.011-1.217 4.588 4.588 0 0 0 0-5.97 4.333 4.333 0 0 0-6.02 0 4.588 4.588 0 0 0 0 5.97 3.951 3.951 0 0 0 3.01 1.217zM163.92 61.615h-1.173V51.16h4.985a3.625 3.625 0 0 1 2.553.882 3.053 3.053 0 0 1 .962 2.386c0 1.306-.541 2.196-1.624 2.668-.288.13-.589.228-.897.294l2.741 4.216h-1.407l-2.516-4.014h-3.624v4.023zm0-5.133h3.61c1.113 0 1.88-.348 2.3-1.043a2.204 2.204 0 0 0-.439-2.583 2.679 2.679 0 0 0-1.797-.588h-3.674v4.214zM174.305 61.615h-1.173V51.16h1.173zM177.9 52.762a1.296 1.296 0 0 0-.402.587c-.069.217-.104.443-.102.67.003.25.11.487.293.656.235.22.511.39.812.505.374.15.758.271 1.15.364l1.316.324c.446.111.884.238 1.316.379.406.13.792.312 1.15.543.7.393 1.13 1.138 1.12 1.943a2.576 2.576 0 0 1-1.097 2.242c-.73.515-1.742.772-3.034.772-1.46 0-2.574-.305-3.34-.916a3.235 3.235 0 0 1-1.173-2.351h1.229a1.943 1.943 0 0 0 1.04 1.642 4.498 4.498 0 0 0 2.255.491c1.955 0 2.932-.616 2.932-1.848.01-.402-.19-.78-.527-.996a4.686 4.686 0 0 0-1.323-.588 25.343 25.343 0 0 0-1.718-.444 10.711 10.711 0 0 1-1.718-.529 3.937 3.937 0 0 1-1.323-.852 1.933 1.933 0 0 1-.527-1.428c-.02-.81.342-1.581.976-2.083.65-.537 1.633-.805 2.947-.805 1.313 0 2.347.303 3.102.91a2.732 2.732 0 0 1 1.055 2.058h-1.213c-.106-.864-.663-1.438-1.672-1.722a4.79 4.79 0 0 0-1.33-.159c-.454-.01-.907.05-1.34.182a2.473 2.473 0 0 0-.854.453zM198.545 61.615h-1.308l-1.276-3.032h-5.172l-1.275 3.032h-1.308l4.43-10.455h1.467l4.442 10.455zm-3.041-4.114l-2.129-5.1-2.128 5.1h4.257zM208.707 51.16v10.455h-1.372l-6.45-8.815v8.815h-1.173V51.16h1.372l6.45 8.798V51.16zM212.281 61.615h-1.173V51.16h1.173zM224.83 51.16v10.455h-1.172V52.96l-3.87 4.977-3.924-4.974v8.653h-1.173V51.16h1.373l3.723 4.963 3.671-4.96zM236.324 61.615h-1.308l-1.275-3.032h-5.16l-1.276 3.032h-1.308l4.428-10.455h1.48l4.42 10.455zm-3.04-4.114l-2.12-5.11-2.129 5.102 4.249.008zM238.67 52.303v3.506h5.8v1.152h-5.8v3.526h6.491v1.137h-7.664V51.16h7.676v1.143z"/>
    </g>
</svg>
